<svg width="142" height="65" viewBox="0 0 142 65" fill="none" xmlns="http://www.w3.org/2000/svg">
<path d="M93.3027 36.576C92.8121 34.8267 92.4067 33.1627 92.0867 31.584C91.7667 30.0267 91.5321 28.608 91.3827 27.328C91.2334 26.0693 91.1587 25.0133 91.1587 24.16C91.1587 22.2613 91.4574 20.576 92.0547 19.104C92.6734 17.6107 93.4627 16.3307 94.4227 15.264C95.4041 14.176 96.4494 13.28 97.5587 12.576C98.6894 11.872 99.7774 11.3493 100.823 11.008C101.889 10.6667 102.796 10.496 103.543 10.496C104.311 10.496 104.94 10.6987 105.431 11.104C105.943 11.5093 106.391 12.096 106.775 12.864C107.18 13.6107 107.607 14.5173 108.055 15.584C108.567 16.736 109.015 17.6107 109.399 18.208C109.804 18.784 110.22 19.1787 110.647 19.392C111.073 19.584 111.553 19.68 112.087 19.68C112.897 19.68 113.484 19.8933 113.847 20.32C114.209 20.7253 114.391 21.2373 114.391 21.856C114.391 22.5173 114.167 23.072 113.719 23.52C113.271 23.9467 112.62 24.16 111.767 24.16C110.721 24.16 109.815 23.9893 109.047 23.648C108.279 23.2853 107.585 22.7733 106.967 22.112L107.863 21.12C107.671 21.7813 107.404 22.3787 107.063 22.912C106.743 23.424 106.305 23.8293 105.751 24.128C105.217 24.4267 104.545 24.576 103.735 24.576C103.009 24.576 102.284 24.4693 101.559 24.256C100.855 24.0427 100.161 23.7227 99.4787 23.296C98.8174 22.8693 98.1774 22.3467 97.5587 21.728C96.9401 21.088 96.3534 20.352 95.7987 19.52L96.9827 19.296C96.5134 20.0213 96.1721 20.832 95.9587 21.728C95.7454 22.624 95.6387 23.5093 95.6387 24.384C95.6387 25.0667 95.6921 25.856 95.7987 26.752C95.9267 27.6693 96.0867 28.6293 96.2787 29.632C96.4707 30.656 96.6841 31.6587 96.9187 32.64C97.1747 33.6427 97.4201 34.56 97.6547 35.392L93.3027 36.576ZM103.671 20.064C104.076 20.064 104.396 20.0107 104.631 19.904C104.887 19.776 105.047 19.5947 105.111 19.36C105.196 19.1253 105.175 18.848 105.047 18.528C104.833 17.952 104.62 17.4507 104.407 17.024C104.215 16.5973 104.023 16.2347 103.831 15.936C103.66 15.6373 103.479 15.4133 103.287 15.264C103.116 15.1147 102.935 15.04 102.743 15.04C102.465 15.04 102.124 15.136 101.719 15.328C101.313 15.4987 100.908 15.712 100.503 15.968C100.097 16.224 99.7561 16.48 99.4787 16.736C99.2014 16.9707 99.0414 17.152 98.9987 17.28L98.6147 16.224C98.9987 16.9707 99.4574 17.6427 99.9907 18.24C100.545 18.816 101.143 19.264 101.783 19.584C102.423 19.904 103.052 20.064 103.671 20.064ZM111.355 24.16L111.675 19.68C112.678 19.68 113.382 19.584 113.787 19.392C114.214 19.1787 114.47 18.7947 114.555 18.24C114.64 17.664 114.662 16.832 114.619 15.744L114.107 0.575998H118.651L119.195 15.712C119.238 16.7787 119.366 17.6 119.579 18.176C119.792 18.752 120.144 19.1467 120.635 19.36C121.147 19.5733 121.83 19.68 122.683 19.68C123.494 19.68 124.07 19.8933 124.411 20.32C124.752 20.7253 124.923 21.2373 124.923 21.856C124.923 22.5173 124.699 23.072 124.251 23.52C123.803 23.9467 123.174 24.16 122.363 24.16C121.424 24.16 120.55 24.0533 119.739 23.84C118.928 23.6267 118.256 23.2213 117.723 22.624C117.19 22.0267 116.838 21.1627 116.667 20.032L118.075 20.064C117.712 21.1733 117.243 22.0267 116.667 22.624C116.091 23.2 115.366 23.6053 114.491 23.84C113.638 24.0533 112.592 24.16 111.355 24.16ZM121.875 24.16L122.195 19.68C123.347 19.68 124.488 19.616 125.619 19.488C126.75 19.36 127.848 19.168 128.915 18.912C129.982 18.656 130.995 18.3253 131.955 17.92C132.936 17.5147 133.854 17.024 134.707 16.448C134.067 16.064 133.374 15.7333 132.627 15.456C131.88 15.1787 131.08 14.976 130.227 14.848C129.395 14.6987 128.51 14.624 127.571 14.624C127.23 14.624 126.867 14.6347 126.483 14.656C126.12 14.6773 125.747 14.72 125.363 14.784C124.979 14.8267 124.595 14.8907 124.211 14.976L123.571 10.592C124.19 10.4213 124.84 10.304 125.523 10.24C126.227 10.1547 126.846 10.112 127.379 10.112C128.531 10.112 129.587 10.24 130.547 10.496C131.528 10.752 132.424 11.072 133.235 11.456C134.067 11.84 134.835 12.224 135.539 12.608C136.264 12.992 136.947 13.312 137.587 13.568C138.248 13.824 138.888 13.952 139.507 13.952H140.691L141.203 18.208C140.286 18.2507 139.422 18.432 138.611 18.752C137.822 19.0507 137.032 19.4347 136.243 19.904C135.475 20.352 134.643 20.8213 133.747 21.312C132.872 21.8027 131.88 22.2613 130.771 22.688C129.662 23.1147 128.382 23.4667 126.931 23.744C125.48 24.0213 123.795 24.16 121.875 24.16Z" fill="black"/>
<path d="M24.4807 54.225C22.3507 54.225 20.5057 53.955 18.9457 53.415C17.4157 52.845 16.2307 51.945 15.3907 50.715C14.5507 49.455 14.0707 47.775 13.9507 45.675L13.1407 27.54H19.4857L20.2507 43.47C20.3107 44.7 20.5057 45.645 20.8357 46.305C21.1957 46.935 21.7057 47.37 22.3657 47.61C23.0257 47.82 23.8807 47.925 24.9307 47.925C26.0707 47.925 26.8807 48.225 27.3607 48.825C27.8407 49.395 28.0807 50.115 28.0807 50.985C28.0807 51.915 27.7657 52.695 27.1357 53.325C26.5357 53.925 25.6507 54.225 24.4807 54.225ZM16.2457 50.04C14.2357 50.49 12.3007 50.7 10.4407 50.67C8.58074 50.61 6.91574 50.28 5.44574 49.68C3.97574 49.05 2.80574 48.15 1.93574 46.98C1.09574 45.81 0.675739 44.325 0.675739 42.525C0.675739 40.935 1.02074 39.495 1.71074 38.205C2.43074 36.885 3.42074 35.73 4.68074 34.74C5.97074 33.75 7.47074 32.91 9.18074 32.22C10.8907 31.53 12.7507 31.005 14.7607 30.645L15.3907 37.035C14.1007 37.095 12.9307 37.275 11.8807 37.575C10.8607 37.845 9.97574 38.205 9.22574 38.655C8.50574 39.105 7.95074 39.615 7.56074 40.185C7.17074 40.725 6.97574 41.31 6.97574 41.94C6.97574 42.45 7.15574 42.87 7.51574 43.2C7.87574 43.53 8.35574 43.8 8.95574 44.01C9.55574 44.19 10.2457 44.295 11.0257 44.325C11.8057 44.355 12.6007 44.31 13.4107 44.19C14.2507 44.07 15.0757 43.875 15.8857 43.605L16.2457 50.04ZM16.3807 22.905C15.5107 22.905 14.7607 22.605 14.1307 22.005C13.5307 21.375 13.2307 20.64 13.2307 19.8C13.2307 18.93 13.5307 18.18 14.1307 17.55C14.7607 16.92 15.5107 16.605 16.3807 16.605C17.2207 16.605 17.9407 16.92 18.5407 17.55C19.1407 18.18 19.4407 18.93 19.4407 19.8C19.4407 20.64 19.1407 21.375 18.5407 22.005C17.9407 22.605 17.2207 22.905 16.3807 22.905ZM8.59574 22.86C7.72574 22.86 6.97574 22.56 6.34574 21.96C5.74574 21.33 5.44574 20.595 5.44574 19.755C5.44574 18.885 5.74574 18.135 6.34574 17.505C6.97574 16.875 7.72574 16.56 8.59574 16.56C9.43574 16.56 10.1557 16.875 10.7557 17.505C11.3557 18.135 11.6557 18.885 11.6557 19.755C11.6557 20.595 11.3557 21.33 10.7557 21.96C10.1557 22.56 9.43574 22.86 8.59574 22.86ZM47.3256 54.81C44.5356 54.81 42.2106 54.69 40.3506 54.45C38.5206 54.21 37.0356 53.865 35.8956 53.415C34.7556 52.965 33.8556 52.425 33.1956 51.795C32.5356 51.165 31.9956 50.475 31.5756 49.725L32.8356 49.365C32.0856 50.805 31.2306 51.87 30.2706 52.56C29.3106 53.25 28.3056 53.7 27.2556 53.91C26.2056 54.12 25.1256 54.225 24.0156 54.225L24.4656 47.925C25.3956 47.925 26.1306 47.775 26.6706 47.475C27.2106 47.175 27.6456 46.68 27.9756 45.99C28.3356 45.3 28.6656 44.385 28.9656 43.245C29.2656 42.105 29.6256 40.71 30.0456 39.06L35.7606 40.455C35.5506 41.265 35.3706 41.97 35.2206 42.57C35.1006 43.17 34.9956 43.695 34.9056 44.145C34.8456 44.565 34.8156 44.91 34.8156 45.18C34.8156 45.75 34.9506 46.26 35.2206 46.71C35.4906 47.13 36.0156 47.475 36.7956 47.745C37.5756 47.985 38.7156 48.18 40.2156 48.33C41.7456 48.45 43.7406 48.51 46.2006 48.51C48.8106 48.51 50.9856 48.42 52.7256 48.24C54.4656 48.03 55.8456 47.745 56.8656 47.385C57.9156 46.995 58.6656 46.53 59.1156 45.99C59.5656 45.42 59.7906 44.775 59.7906 44.055C59.7906 43.485 59.6556 42.96 59.3856 42.48C59.1456 41.97 58.7406 41.55 58.1706 41.22C57.6006 40.89 56.8656 40.725 55.9656 40.725C54.8856 40.725 53.7906 40.995 52.6806 41.535C51.6006 42.045 50.5356 42.735 49.4856 43.605C48.4356 44.445 47.4306 45.39 46.4706 46.44C45.5406 47.49 44.7006 48.54 43.9506 49.59L37.2006 48.825C38.3706 46.935 39.6906 45.12 41.1606 43.38C42.6306 41.64 44.2056 40.11 45.8856 38.79C47.5656 37.44 49.3056 36.375 51.1056 35.595C52.9056 34.815 54.7356 34.425 56.5956 34.425C58.6056 34.425 60.3156 34.815 61.7256 35.595C63.1356 36.375 64.2156 37.455 64.9656 38.835C65.7156 40.215 66.0906 41.805 66.0906 43.605C66.0906 45.795 65.4606 47.73 64.2006 49.41C62.9706 51.09 60.9756 52.41 58.2156 53.37C55.4856 54.33 51.8556 54.81 47.3256 54.81ZM55.2906 30.24C54.3606 30.24 53.5656 29.925 52.9056 29.295C52.2756 28.665 51.9606 27.885 51.9606 26.955C51.9606 26.025 52.2756 25.23 52.9056 24.57C53.5656 23.91 54.3606 23.58 55.2906 23.58C56.1906 23.58 56.9556 23.91 57.5856 24.57C58.2456 25.23 58.5756 26.025 58.5756 26.955C58.5756 27.885 58.2456 28.665 57.5856 29.295C56.9556 29.925 56.1906 30.24 55.2906 30.24ZM81.6441 54.225C78.8541 54.225 76.6941 53.94 75.1641 53.37C73.6641 52.8 72.6141 51.915 72.0141 50.715C71.4141 49.485 71.0691 47.94 70.9791 46.08L70.0341 21.06H76.3341L77.2791 43.065C77.3391 44.445 77.4891 45.48 77.7291 46.17C77.9691 46.86 78.4191 47.325 79.0791 47.565C79.7691 47.805 80.7741 47.925 82.0941 47.925C83.2341 47.925 84.0441 48.225 84.5241 48.825C85.0341 49.395 85.2891 50.115 85.2891 50.985C85.2891 51.915 84.9741 52.695 84.3441 53.325C83.7141 53.925 82.8141 54.225 81.6441 54.225ZM81.2553 54.225L81.7053 47.925C83.5053 47.925 84.8853 47.835 85.8453 47.655C86.8053 47.475 87.4653 47.145 87.8253 46.665C88.2153 46.155 88.4103 45.435 88.4103 44.505C88.4103 43.665 88.2903 42.66 88.0503 41.49C87.8403 40.32 87.5553 39.105 87.1953 37.845C86.8653 36.585 86.5053 35.43 86.1153 34.38L92.3253 32.67C92.7153 33.69 93.0903 34.875 93.4503 36.225C93.8103 37.575 94.1103 38.97 94.3503 40.41C94.5903 41.82 94.7103 43.185 94.7103 44.505C94.7103 46.545 94.3803 48.21 93.7203 49.5C93.0603 50.76 92.1303 51.735 90.9303 52.425C89.7603 53.115 88.3503 53.595 86.7003 53.865C85.0503 54.105 83.2353 54.225 81.2553 54.225ZM92.3703 64.665C91.5003 64.665 90.7503 64.35 90.1203 63.72C89.5203 63.12 89.2203 62.4 89.2203 61.56C89.2203 60.69 89.5203 59.94 90.1203 59.31C90.7503 58.68 91.5003 58.365 92.3703 58.365C93.2103 58.365 93.9303 58.68 94.5303 59.31C95.1303 59.94 95.4303 60.69 95.4303 61.56C95.4303 62.4 95.1303 63.12 94.5303 63.72C93.9303 64.35 93.2103 64.665 92.3703 64.665ZM84.5853 64.665C83.7153 64.665 82.9653 64.35 82.3353 63.72C81.7353 63.12 81.4353 62.4 81.4353 61.56C81.4353 60.69 81.7353 59.94 82.3353 59.31C82.9653 58.68 83.7153 58.365 84.5853 58.365C85.4253 58.365 86.1453 58.68 86.7453 59.31C87.3453 59.94 87.6453 60.69 87.6453 61.56C87.6453 62.4 87.3453 63.12 86.7453 63.72C86.1453 64.35 85.4253 64.665 84.5853 64.665ZM97.6971 64.395L95.4021 58.815C96.9921 58.275 98.4471 57.645 99.7671 56.925C101.117 56.205 102.287 55.41 103.277 54.54C104.267 53.67 105.032 52.725 105.572 51.705C106.112 50.655 106.382 49.53 106.382 48.33C106.382 47.07 106.097 45.69 105.527 44.19C104.957 42.69 104.267 41.16 103.457 39.6L109.352 36.765C109.892 37.695 110.357 38.7 110.747 39.78C111.167 40.83 111.512 41.775 111.782 42.615C112.052 43.455 112.232 44.025 112.322 44.325C112.742 45.765 113.312 46.725 114.032 47.205C114.782 47.685 115.982 47.925 117.632 47.925C118.772 47.925 119.582 48.225 120.062 48.825C120.572 49.395 120.827 50.115 120.827 50.985C120.827 51.915 120.512 52.695 119.882 53.325C119.252 53.925 118.352 54.225 117.182 54.225C115.952 54.225 114.872 54.045 113.942 53.685C113.012 53.325 112.262 52.8 111.692 52.11C111.152 51.42 110.807 50.61 110.657 49.68L112.322 50.625C112.142 52.215 111.617 53.715 110.747 55.125C109.907 56.565 108.812 57.885 107.462 59.085C106.112 60.285 104.597 61.335 102.917 62.235C101.237 63.135 99.4971 63.855 97.6971 64.395ZM116.786 54.225L117.236 47.925C118.616 47.925 119.606 47.79 120.206 47.52C120.806 47.22 121.166 46.68 121.286 45.9C121.406 45.09 121.436 43.92 121.376 42.39L120.566 21.06H126.911L127.811 42.84C127.871 44.58 127.796 46.155 127.586 47.565C127.406 48.945 126.941 50.13 126.191 51.12C125.471 52.11 124.346 52.875 122.816 53.415C121.316 53.955 119.306 54.225 116.786 54.225ZM133.295 54L132.35 21.06H138.65L139.595 54H133.295Z" fill="#C10808"/>
</svg>
