<svg width="161" height="64" viewBox="0 0 161 64" fill="none" xmlns="http://www.w3.org/2000/svg">
<path d="M3.90909 0.727272H11.7727L15 13.9091H15.2727L22.8636 0.727272H30.7273L26.8636 24H20.6818L22.9091 10.5455H22.7273L15.3636 23.8182H11.6364L8.68182 10.4545H8.5L6.22727 24H0.0454545L3.90909 0.727272ZM37.787 24.3182C35.9234 24.3182 34.378 23.9621 33.1507 23.25C31.9234 22.5303 31.0598 21.5 30.5598 20.1591C30.0598 18.8106 29.9689 17.197 30.287 15.3182C30.5901 13.5152 31.2151 11.9394 32.162 10.5909C33.1166 9.24242 34.3173 8.19318 35.7643 7.44318C37.2189 6.69318 38.8477 6.31818 40.6507 6.31818C41.9689 6.31818 43.1242 6.52273 44.1166 6.93182C45.1166 7.34091 45.931 7.93561 46.5598 8.71591C47.1886 9.49621 47.6128 10.4394 47.8325 11.5455C48.0598 12.6439 48.0598 13.8864 47.8325 15.2727L47.6052 16.7273H32.0143L32.5598 13.2727H42.378C42.4537 12.7727 42.4045 12.3333 42.2302 11.9545C42.0636 11.5682 41.7946 11.2689 41.4234 11.0568C41.0598 10.8371 40.6204 10.7273 40.1052 10.7273C39.5901 10.7273 39.1052 10.8371 38.6507 11.0568C38.2037 11.2765 37.8211 11.5833 37.503 11.9773C37.1923 12.3712 36.984 12.8333 36.878 13.3636L36.1961 17C36.1052 17.5606 36.1393 18.0606 36.2984 18.5C36.4575 18.9394 36.734 19.2841 37.128 19.5341C37.5219 19.7841 38.0295 19.9091 38.6507 19.9091C39.0749 19.9091 39.4764 19.8523 39.8552 19.7386C40.2416 19.6174 40.5825 19.4432 40.878 19.2159C41.181 18.9811 41.4234 18.697 41.6052 18.3636H47.3325C46.9234 19.5758 46.2757 20.6288 45.3893 21.5227C44.5105 22.4091 43.4272 23.0985 42.1393 23.5909C40.859 24.0758 39.4083 24.3182 37.787 24.3182ZM67.6394 6.54545L64.7303 24H58.8667L61.7758 6.54545H67.6394ZM63.3667 13.7727L62.594 18.4545C62.3667 18.5909 61.9803 18.7273 61.4349 18.8636C60.897 18.9924 60.3364 19.1023 59.7531 19.1932C59.1697 19.2765 58.6925 19.3182 58.3213 19.3182C55.4652 19.3182 53.3213 18.8106 51.8894 17.7955C50.4576 16.7803 49.9349 15.0909 50.3213 12.7273L51.3667 6.54545H57.1849L56.1394 12.7273C56.0561 13.2576 56.0675 13.6591 56.1735 13.9318C56.2872 14.2045 56.5675 14.3902 57.0144 14.4886C57.469 14.5871 58.1622 14.6364 59.094 14.6364C59.6697 14.6364 60.2985 14.5682 60.9803 14.4318C61.6697 14.2879 62.4652 14.0682 63.3667 13.7727ZM68.0628 11.2273L68.8356 6.54545H85.7447L84.9719 11.2273H79.4265L77.2901 24H71.381L73.5174 11.2273H68.0628ZM89.0658 24.2727C87.9597 24.2727 87.009 24.0909 86.2135 23.7273C85.4256 23.3561 84.8499 22.7955 84.4863 22.0455C84.1302 21.2879 84.0506 20.3333 84.2476 19.1818C84.4067 18.2273 84.7059 17.4129 85.1453 16.7386C85.5847 16.0644 86.1302 15.5114 86.7817 15.0795C87.4332 14.6477 88.1643 14.3182 88.9749 14.0909C89.7931 13.8561 90.6567 13.7045 91.5658 13.6364C92.5506 13.5606 93.3499 13.4659 93.9635 13.3523C94.5772 13.2386 95.0355 13.0833 95.3385 12.8864C95.6416 12.6894 95.8234 12.4242 95.884 12.0909V12.0455C95.9522 11.5909 95.8309 11.2424 95.5203 11C95.2173 10.7576 94.7931 10.6364 94.2476 10.6364C93.6567 10.6364 93.1453 10.7652 92.7135 11.0227C92.2893 11.2803 91.9976 11.6818 91.8385 12.2273H86.0658C86.3082 11.1667 86.8044 10.1894 87.5544 9.29545C88.312 8.39394 89.3158 7.67424 90.5658 7.13636C91.8234 6.59091 93.3234 6.31818 95.0658 6.31818C96.3082 6.31818 97.3991 6.46591 98.3385 6.76136C99.2779 7.04924 100.054 7.45455 100.668 7.97727C101.289 8.49242 101.725 9.09848 101.975 9.79545C102.232 10.4848 102.293 11.2348 102.157 12.0455L100.157 24H94.2931L94.7022 21.5455H94.5658C94.1113 22.197 93.5999 22.7235 93.0317 23.125C92.4711 23.5265 91.8575 23.8182 91.1908 24C90.5317 24.1818 89.8234 24.2727 89.0658 24.2727ZM91.7931 20.3182C92.2628 20.3182 92.7249 20.2197 93.1794 20.0227C93.634 19.8258 94.0241 19.5417 94.3499 19.1705C94.6756 18.7992 94.884 18.3485 94.9749 17.8182L95.2022 16.3636C95.0355 16.4318 94.8499 16.4962 94.6453 16.5568C94.4484 16.6098 94.24 16.6629 94.0203 16.7159C93.8082 16.7689 93.5809 16.8182 93.3385 16.8636C93.1037 16.9091 92.8613 16.9545 92.6113 17C92.1113 17.0758 91.6908 17.2008 91.3499 17.375C91.009 17.5417 90.7438 17.75 90.5544 18C90.365 18.2424 90.2476 18.5152 90.2022 18.8182C90.134 19.2955 90.2438 19.6667 90.5317 19.9318C90.8272 20.1894 91.2476 20.3182 91.7931 20.3182ZM116.933 24.3182C115.039 24.3182 113.478 23.9432 112.251 23.1932C111.031 22.4356 110.175 21.3826 109.683 20.0341C109.19 18.678 109.092 17.1061 109.387 15.3182C109.683 13.5303 110.3 11.9621 111.239 10.6136C112.179 9.25758 113.387 8.20454 114.864 7.45454C116.342 6.69697 118.031 6.31818 119.933 6.31818C121.819 6.31818 123.372 6.69697 124.592 7.45454C125.819 8.20454 126.679 9.25758 127.171 10.6136C127.671 11.9621 127.773 13.5303 127.478 15.3182C127.183 17.1061 126.561 18.678 125.614 20.0341C124.667 21.3826 123.455 22.4356 121.978 23.1932C120.508 23.9432 118.826 24.3182 116.933 24.3182ZM117.705 19.6818C118.251 19.6818 118.747 19.5038 119.194 19.1477C119.648 18.7917 120.035 18.2841 120.353 17.625C120.679 16.9659 120.917 16.1818 121.069 15.2727C121.22 14.3561 121.243 13.572 121.137 12.9205C121.031 12.2614 120.811 11.7538 120.478 11.3977C120.145 11.0417 119.705 10.8636 119.16 10.8636C118.614 10.8636 118.114 11.0417 117.66 11.3977C117.205 11.7538 116.819 12.2614 116.501 12.9205C116.183 13.572 115.948 14.3561 115.796 15.2727C115.645 16.1818 115.618 16.9659 115.717 17.625C115.823 18.2841 116.042 18.7917 116.376 19.1477C116.717 19.5038 117.16 19.6818 117.705 19.6818Z" fill="black"/>
<path d="M11.9531 54.4474C9.28977 54.4474 7.09517 53.9201 5.36932 52.8654C3.64347 51.8001 2.4343 50.3192 1.74183 48.4229C1.04936 46.516 0.916193 44.3054 1.34233 41.7912C1.74716 39.277 2.61009 37.0717 3.93111 35.1754C5.26278 33.2685 6.96733 31.7876 9.04474 30.733C11.1328 29.6676 13.5085 29.1349 16.1719 29.1349C18.5795 29.1349 20.5877 29.5717 22.1964 30.4453C23.8157 31.3082 24.9716 32.5334 25.6641 34.1207C26.3672 35.6974 26.5483 37.5511 26.2074 39.6818H18.0256C18.1214 38.4034 17.9137 37.4233 17.4023 36.7415C16.9016 36.0597 16.1719 35.7188 15.2131 35.7188C14.4247 35.7188 13.7003 35.9425 13.0398 36.3899C12.3899 36.8267 11.8306 37.4925 11.3619 38.3874C10.9038 39.2717 10.5682 40.3849 10.3551 41.7273C10.142 43.0696 10.1154 44.1882 10.2752 45.0831C10.4457 45.9673 10.7759 46.6332 11.266 47.0806C11.7667 47.5174 12.4006 47.7358 13.1676 47.7358C13.8281 47.7358 14.4354 47.5866 14.9893 47.2884C15.554 46.9794 16.0387 46.532 16.4435 45.946C16.859 45.3494 17.1733 44.625 17.3864 43.7727H25.5682C25.1634 45.946 24.3484 47.8317 23.1232 49.4297C21.8981 51.0277 20.3374 52.2635 18.4411 53.1371C16.5447 54.0107 14.3821 54.4474 11.9531 54.4474ZM27.0957 54L31.1866 29.4545H54.0702L49.9792 54H41.6696L44.6738 36.0384H38.2818L35.2775 54H27.0957ZM65.765 54.4474C63.1017 54.4474 60.9071 53.9201 59.1812 52.8654C57.466 51.8001 56.2622 50.3192 55.5697 48.4229C54.8773 46.516 54.7388 44.3054 55.1542 41.7912C55.5697 39.277 56.438 37.0717 57.759 35.1754C59.08 33.2685 60.7792 31.7876 62.8567 30.733C64.9341 29.6676 67.3098 29.1349 69.9838 29.1349C72.6365 29.1349 74.8204 29.6676 76.5356 30.733C78.2615 31.7876 79.4706 33.2685 80.1631 35.1754C80.8662 37.0717 81.0101 39.277 80.5946 41.7912C80.1791 44.3054 79.3055 46.516 77.9738 48.4229C76.6422 50.3192 74.9376 51.8001 72.8602 52.8654C70.7934 53.9201 68.4284 54.4474 65.765 54.4474ZM66.8517 47.9276C67.6187 47.9276 68.3165 47.6772 68.9451 47.1765C69.5843 46.6758 70.1276 45.962 70.5751 45.0352C71.0331 44.1083 71.3687 43.0057 71.5818 41.7273C71.7949 40.4382 71.8268 39.3356 71.6777 38.4194C71.5285 37.4925 71.2196 36.7788 70.7508 36.2781C70.2821 35.7773 69.6642 35.527 68.8971 35.527C68.1301 35.527 67.427 35.7773 66.7878 36.2781C66.1486 36.7788 65.6052 37.4925 65.1578 38.4194C64.7104 39.3356 64.3801 40.4382 64.167 41.7273C63.954 43.0057 63.9167 44.1083 64.0552 45.0352C64.2043 45.962 64.5133 46.6758 64.982 47.1765C65.4614 47.6772 66.0846 47.9276 66.8517 47.9276ZM80.2085 63.2045L85.8655 29.4545H94.6226L93.9194 33.7372H94.1112C94.5586 32.9062 95.1446 32.1445 95.869 31.4521C96.6041 30.7489 97.467 30.1896 98.4578 29.7741C99.4592 29.348 100.567 29.1349 101.782 29.1349C103.401 29.1349 104.866 29.5664 106.176 30.4293C107.487 31.2923 108.451 32.6506 109.069 34.5043C109.686 36.358 109.75 38.7656 109.26 41.7273C108.792 44.5611 107.955 46.9102 106.751 48.7745C105.558 50.6388 104.152 52.0291 102.533 52.9453C100.924 53.8615 99.2461 54.3196 97.499 54.3196C96.3484 54.3196 95.3523 54.1332 94.5107 53.7603C93.6691 53.3768 92.9926 52.8601 92.4812 52.2102C91.9699 51.5497 91.6183 50.804 91.4265 49.973H91.2348L89.0615 63.2045H80.2085ZM92.4493 41.7273C92.2575 42.9205 92.2415 43.9538 92.4013 44.8274C92.5718 45.6903 92.9074 46.3615 93.4081 46.8409C93.9194 47.3097 94.58 47.544 95.3896 47.544C96.1993 47.544 96.9237 47.315 97.5629 46.8569C98.2021 46.3881 98.7454 45.7223 99.1929 44.8594C99.6403 43.9858 99.9706 42.9418 100.184 41.7273C100.375 40.5128 100.391 39.4741 100.232 38.6112C100.072 37.7376 99.7469 37.0717 99.2568 36.6136C98.7667 36.1449 98.1169 35.9105 97.3072 35.9105C96.4976 35.9105 95.7572 36.1449 95.086 36.6136C94.4255 37.0717 93.8662 37.7376 93.4081 38.6112C92.9606 39.4741 92.641 40.5128 92.4493 41.7273ZM111.583 36.0384L112.67 29.4545H136.448L135.361 36.0384H127.563L124.559 54H116.249L119.253 36.0384H111.583ZM146.265 54.4474C143.644 54.4474 141.471 53.9467 139.745 52.9453C138.019 51.9332 136.805 50.4844 136.102 48.5987C135.399 46.7024 135.271 44.4332 135.718 41.7912C136.144 39.2557 137.023 37.0398 138.355 35.1435C139.697 33.2472 141.386 31.7717 143.421 30.717C145.466 29.6623 147.757 29.1349 150.292 29.1349C152.146 29.1349 153.771 29.4226 155.166 29.9979C156.572 30.5732 157.718 31.4094 158.602 32.5067C159.486 33.604 160.083 34.9304 160.392 36.4858C160.711 38.0305 160.711 39.7777 160.392 41.7273L160.072 43.7727H138.147L138.914 38.9148H152.721C152.828 38.2116 152.758 37.5937 152.513 37.0611C152.279 36.5178 151.901 36.0969 151.379 35.7987C150.867 35.4897 150.25 35.3352 149.525 35.3352C148.801 35.3352 148.119 35.4897 147.48 35.7987C146.851 36.1076 146.313 36.5391 145.866 37.093C145.429 37.647 145.136 38.2969 144.987 39.0426L144.028 44.1562C143.9 44.9446 143.948 45.6477 144.172 46.2656C144.396 46.8835 144.784 47.3683 145.338 47.7198C145.892 48.0714 146.606 48.2472 147.48 48.2472C148.076 48.2472 148.641 48.1673 149.174 48.0075C149.717 47.837 150.196 47.592 150.612 47.2724C151.038 46.9421 151.379 46.5426 151.635 46.0739H159.688C159.113 47.7784 158.202 49.2592 156.956 50.5163C155.72 51.7628 154.197 52.7322 152.386 53.4247C150.585 54.1065 148.545 54.4474 146.265 54.4474Z" fill="#C10808"/>
</svg>
