<svg width="146" height="65" viewBox="0 0 146 65" fill="none" xmlns="http://www.w3.org/2000/svg">
<path d="M9.13636 25H0.0454545L3.90909 1.72727H12.6364C15.0303 1.72727 17.0303 2.20833 18.6364 3.17045C20.2424 4.13258 21.3826 5.50758 22.0568 7.29545C22.7311 9.08333 22.8636 11.2121 22.4545 13.6818C22.0606 16.0606 21.2614 18.0947 20.0568 19.7841C18.8598 21.4735 17.3295 22.7652 15.4659 23.6591C13.6098 24.553 11.5 25 9.13636 25ZM7.25 19.6364H9.54545C10.697 19.6364 11.7235 19.4356 12.625 19.0341C13.5341 18.625 14.2917 17.9432 14.8977 16.9886C15.5114 16.0265 15.9545 14.7121 16.2273 13.0455C16.4848 11.4697 16.4773 10.2538 16.2045 9.39773C15.9318 8.53409 15.4129 7.93561 14.6477 7.60227C13.8826 7.26136 12.8939 7.09091 11.6818 7.09091H9.34091L7.25 19.6364ZM23.1251 25L26.0342 7.54545H32.1251L31.5797 10.8636H31.7615C32.2842 9.63636 32.9395 8.73864 33.7274 8.17045C34.5153 7.60227 35.3751 7.31818 36.3069 7.31818C36.5797 7.31818 36.841 7.34091 37.091 7.38636C37.3486 7.42424 37.6024 7.47727 37.8524 7.54545L36.9433 12.9091C36.6478 12.7955 36.2804 12.7159 35.841 12.6705C35.4016 12.6174 35.0115 12.5909 34.6706 12.5909C34.0645 12.5909 33.4963 12.7311 32.966 13.0114C32.4433 13.2841 31.9963 13.6705 31.6251 14.1705C31.2615 14.6629 31.0191 15.2424 30.8978 15.9091L29.3978 25H23.1251ZM43.8383 25.3182C41.9747 25.3182 40.4292 24.9621 39.2019 24.25C37.9747 23.5303 37.111 22.5 36.611 21.1591C36.111 19.8106 36.0201 18.197 36.3383 16.3182C36.6413 14.5152 37.2663 12.9394 38.2133 11.5909C39.1678 10.2424 40.3686 9.19318 41.8156 8.44318C43.2701 7.69318 44.8989 7.31818 46.7019 7.31818C48.0201 7.31818 49.1754 7.52273 50.1678 7.93182C51.1678 8.34091 51.9822 8.93561 52.611 9.71591C53.2398 10.4962 53.6641 11.4394 53.8838 12.5455C54.111 13.6439 54.111 14.8864 53.8838 16.2727L53.6565 17.7273H38.0656L38.611 14.2727H48.4292C48.505 13.7727 48.4557 13.3333 48.2815 12.9545C48.1148 12.5682 47.8459 12.2689 47.4747 12.0568C47.111 11.8371 46.6716 11.7273 46.1565 11.7273C45.6413 11.7273 45.1565 11.8371 44.7019 12.0568C44.255 12.2765 43.8724 12.5833 43.5542 12.9773C43.2436 13.3712 43.0353 13.8333 42.9292 14.3636L42.2474 18C42.1565 18.5606 42.1906 19.0606 42.3497 19.5C42.5088 19.9394 42.7853 20.2841 43.1792 20.5341C43.5731 20.7841 44.0807 20.9091 44.7019 20.9091C45.1262 20.9091 45.5277 20.8523 45.9065 20.7386C46.2928 20.6174 46.6338 20.4432 46.9292 20.2159C47.2322 19.9811 47.4747 19.697 47.6565 19.3636H53.3838C52.9747 20.5758 52.3269 21.6288 51.4406 22.5227C50.5618 23.4091 49.4784 24.0985 48.1906 24.5909C46.9103 25.0758 45.4595 25.3182 43.8383 25.3182ZM59.327 25.2727C58.221 25.2727 57.2702 25.0909 56.4748 24.7273C55.6869 24.3561 55.1111 23.7955 54.7475 23.0455C54.3914 22.2879 54.3119 21.3333 54.5089 20.1818C54.668 19.2273 54.9672 18.4129 55.4066 17.7386C55.846 17.0644 56.3914 16.5114 57.043 16.0795C57.6945 15.6477 58.4255 15.3182 59.2361 15.0909C60.0543 14.8561 60.918 14.7045 61.827 14.6364C62.8119 14.5606 63.6111 14.4659 64.2248 14.3523C64.8384 14.2386 65.2967 14.0833 65.5998 13.8864C65.9028 13.6894 66.0846 13.4242 66.1452 13.0909V13.0455C66.2134 12.5909 66.0922 12.2424 65.7816 12C65.4786 11.7576 65.0543 11.6364 64.5089 11.6364C63.918 11.6364 63.4066 11.7652 62.9748 12.0227C62.5505 12.2803 62.2589 12.6818 62.0998 13.2273H56.327C56.5695 12.1667 57.0657 11.1894 57.8157 10.2955C58.5733 9.39394 59.577 8.67424 60.827 8.13636C62.0846 7.59091 63.5846 7.31818 65.327 7.31818C66.5695 7.31818 67.6604 7.46591 68.5998 7.76136C69.5392 8.04924 70.3157 8.45455 70.9293 8.97727C71.5505 9.49242 71.9861 10.0985 72.2361 10.7955C72.4937 11.4848 72.5543 12.2348 72.418 13.0455L70.418 25H64.5543L64.9634 22.5455H64.827C64.3725 23.197 63.8611 23.7235 63.293 24.125C62.7324 24.5265 62.1187 24.8182 61.452 25C60.793 25.1818 60.0846 25.2727 59.327 25.2727ZM62.0543 21.3182C62.524 21.3182 62.9861 21.2197 63.4407 21.0227C63.8952 20.8258 64.2854 20.5417 64.6111 20.1705C64.9369 19.7992 65.1452 19.3485 65.2361 18.8182L65.4634 17.3636C65.2967 17.4318 65.1111 17.4962 64.9066 17.5568C64.7096 17.6098 64.5013 17.6629 64.2816 17.7159C64.0695 17.7689 63.8422 17.8182 63.5998 17.8636C63.3649 17.9091 63.1225 17.9545 62.8725 18C62.3725 18.0758 61.952 18.2008 61.6111 18.375C61.2702 18.5417 61.0051 18.75 60.8157 19C60.6263 19.2424 60.5089 19.5152 60.4634 19.8182C60.3952 20.2955 60.5051 20.6667 60.793 20.9318C61.0884 21.1894 61.5089 21.3182 62.0543 21.3182ZM72.9806 25L75.8897 7.54545H81.8442L81.2988 10.8636H81.4806C82.0184 9.77273 82.7798 8.90909 83.7647 8.27273C84.7495 7.63636 85.8518 7.31818 87.0715 7.31818C88.2912 7.31818 89.2912 7.64394 90.0715 8.29545C90.8518 8.93939 91.2457 9.79545 91.2533 10.8636H91.4351C91.9048 9.79545 92.6738 8.93939 93.7419 8.29545C94.8101 7.64394 95.9957 7.31818 97.2988 7.31818C98.9578 7.31818 100.219 7.85606 101.083 8.93182C101.954 10.0076 102.238 11.4394 101.935 13.2273L99.9806 25H93.7078L95.4351 14.8182C95.5412 14.053 95.4351 13.4545 95.1169 13.0227C94.7988 12.5833 94.3139 12.3636 93.6624 12.3636C93.0184 12.3636 92.473 12.5833 92.026 13.0227C91.5866 13.4545 91.3139 14.053 91.2078 14.8182L89.4806 25H83.4806L85.2078 14.8182C85.3139 14.053 85.2078 13.4545 84.8897 13.0227C84.5715 12.5833 84.0866 12.3636 83.4351 12.3636C83.0109 12.3636 82.6245 12.4621 82.276 12.6591C81.9351 12.8561 81.651 13.1402 81.4238 13.5114C81.2041 13.875 81.0563 14.3106 80.9806 14.8182L79.2533 25H72.9806ZM116.808 25.3182C114.914 25.3182 113.353 24.9432 112.126 24.1932C110.906 23.4356 110.05 22.3826 109.558 21.0341C109.065 19.678 108.967 18.1061 109.262 16.3182C109.558 14.5303 110.175 12.9621 111.114 11.6136C112.054 10.2576 113.262 9.20454 114.739 8.45454C116.217 7.69697 117.906 7.31818 119.808 7.31818C121.694 7.31818 123.247 7.69697 124.467 8.45454C125.694 9.20454 126.554 10.2576 127.046 11.6136C127.546 12.9621 127.648 14.5303 127.353 16.3182C127.058 18.1061 126.436 19.678 125.489 21.0341C124.542 22.3826 123.33 23.4356 121.853 24.1932C120.383 24.9432 118.701 25.3182 116.808 25.3182ZM117.58 20.6818C118.126 20.6818 118.622 20.5038 119.069 20.1477C119.523 19.7917 119.91 19.2841 120.228 18.625C120.554 17.9659 120.792 17.1818 120.944 16.2727C121.095 15.3561 121.118 14.572 121.012 13.9205C120.906 13.2614 120.686 12.7538 120.353 12.3977C120.02 12.0417 119.58 11.8636 119.035 11.8636C118.489 11.8636 117.989 12.0417 117.535 12.3977C117.08 12.7538 116.694 13.2614 116.376 13.9205C116.058 14.572 115.823 15.3561 115.671 16.2727C115.52 17.1818 115.493 17.9659 115.592 18.625C115.698 19.2841 115.917 19.7917 116.251 20.1477C116.592 20.5038 117.035 20.6818 117.58 20.6818ZM141.35 7.54545L140.577 12.0909H128.896L129.668 7.54545H141.35ZM128.964 25L131.964 7.04545C132.199 5.60606 132.649 4.41288 133.316 3.46591C133.99 2.51894 134.835 1.81061 135.85 1.34091C136.873 0.871211 138.017 0.636362 139.282 0.636362C140.085 0.636362 140.854 0.696969 141.589 0.818182C142.324 0.939394 142.858 1.04545 143.191 1.13636L141.555 5.63636C141.335 5.56818 141.081 5.51515 140.793 5.47727C140.506 5.43182 140.244 5.40909 140.009 5.40909C139.426 5.40909 139.009 5.53409 138.759 5.78409C138.517 6.03409 138.358 6.36364 138.282 6.77273L135.237 25H128.964Z" fill="black"/>
<path d="M25.3125 38.4446H17.3864C17.429 37.9332 17.3384 37.4964 17.1147 37.1342C16.891 36.772 16.5767 36.495 16.1719 36.3033C15.7777 36.1115 15.3303 36.0156 14.8295 36.0156C13.956 36.0156 13.1623 36.2127 12.4485 36.6069C11.7347 36.9904 11.3352 37.4964 11.25 38.125C11.1967 38.37 11.2766 38.5991 11.4897 38.8121C11.7028 39.0252 12.2621 39.2223 13.1676 39.4034L18.0256 40.2983C20.4545 40.7457 22.223 41.5607 23.331 42.7433C24.4496 43.9151 24.8544 45.4652 24.5455 47.3935C24.2578 49.0661 23.5227 50.5043 22.3402 51.7081C21.1577 52.9119 19.6555 53.8388 17.8338 54.4886C16.0227 55.1278 14.0199 55.4474 11.8253 55.4474C7.9581 55.4474 5.06037 54.6751 3.1321 53.1303C1.21449 51.5856 0.340909 49.5668 0.511364 47.0739H9.0767C9.09801 47.8729 9.36435 48.4748 9.87571 48.8796C10.3977 49.2738 11.0902 49.4815 11.9531 49.5028C12.8906 49.5348 13.7109 49.3484 14.4141 48.9435C15.1172 48.5281 15.5114 48.0114 15.5966 47.3935C15.6286 47.0419 15.4741 46.7756 15.1332 46.5945C14.8029 46.4134 14.169 46.2322 13.2315 46.0511L9.01278 45.2841C6.58381 44.8473 4.81534 43.9737 3.70739 42.6634C2.59943 41.3423 2.21591 39.6591 2.55682 37.6136C2.83381 35.9837 3.49432 34.6147 4.53835 33.5067C5.59304 32.3988 6.97798 31.5625 8.69318 30.9979C10.4084 30.4226 12.3899 30.1349 14.6378 30.1349C18.3132 30.1349 21.0938 30.8754 22.9794 32.3562C24.8757 33.8263 25.6534 35.8558 25.3125 38.4446ZM24.7267 64.2045L30.3836 30.4545H39.1407L38.4376 34.7372H38.6294C39.0768 33.9062 39.6627 33.1445 40.3872 32.4521C41.1223 31.7489 41.9852 31.1896 42.976 30.7741C43.9774 30.348 45.0853 30.1349 46.2998 30.1349C47.9191 30.1349 49.384 30.5664 50.6944 31.4293C52.0047 32.2923 52.9689 33.6506 53.5868 35.5043C54.2047 37.358 54.2686 39.7656 53.7785 42.7273C53.3098 45.5611 52.4735 47.9102 51.2696 49.7745C50.0765 51.6388 48.6702 53.0291 47.0509 53.9453C45.4422 54.8615 43.7643 55.3196 42.0172 55.3196C40.8666 55.3196 39.8705 55.1332 39.0289 54.7603C38.1873 54.3768 37.5108 53.8601 36.9994 53.2102C36.488 52.5497 36.1365 51.804 35.9447 50.973H35.7529L33.5797 64.2045H24.7267ZM36.9674 42.7273C36.7757 43.9205 36.7597 44.9538 36.9195 45.8274C37.0899 46.6903 37.4255 47.3615 37.9262 47.8409C38.4376 48.3097 39.0981 48.544 39.9078 48.544C40.7174 48.544 41.4419 48.315 42.0811 47.8569C42.7203 47.3881 43.2636 46.7223 43.711 45.8594C44.1585 44.9858 44.4887 43.9418 44.7018 42.7273C44.8936 41.5128 44.9096 40.4741 44.7498 39.6112C44.5899 38.7376 44.265 38.0717 43.775 37.6136C43.2849 37.1449 42.635 36.9105 41.8254 36.9105C41.0157 36.9105 40.2753 37.1449 39.6042 37.6136C38.9436 38.0717 38.3843 38.7376 37.9262 39.6112C37.4788 40.4741 37.1592 41.5128 36.9674 42.7273ZM66.7318 55.4474C64.0685 55.4474 61.8739 54.9201 60.148 53.8654C58.4328 52.8001 57.229 51.3192 56.5365 49.4229C55.8441 47.516 55.7056 45.3054 56.121 42.7912C56.5365 40.277 57.4048 38.0717 58.7258 36.1754C60.0468 34.2685 61.746 32.7876 63.8235 31.733C65.9009 30.6676 68.2766 30.1349 70.9506 30.1349C73.6033 30.1349 75.7872 30.6676 77.5024 31.733C79.2283 32.7876 80.4374 34.2685 81.1299 36.1754C81.833 38.0717 81.9769 40.277 81.5614 42.7912C81.1459 45.3054 80.2723 47.516 78.9406 49.4229C77.609 51.3192 75.9044 52.8001 73.827 53.8654C71.7602 54.9201 69.3952 55.4474 66.7318 55.4474ZM67.8185 48.9276C68.5855 48.9276 69.2833 48.6772 69.9119 48.1765C70.5511 47.6758 71.0944 46.962 71.5418 46.0352C71.9999 45.1083 72.3355 44.0057 72.5486 42.7273C72.7617 41.4382 72.7936 40.3356 72.6445 39.4194C72.4953 38.4925 72.1864 37.7788 71.7176 37.2781C71.2489 36.7773 70.631 36.527 69.8639 36.527C69.0969 36.527 68.3938 36.7773 67.7546 37.2781C67.1154 37.7788 66.572 38.4925 66.1246 39.4194C65.6771 40.3356 65.3469 41.4382 65.1338 42.7273C64.9208 44.0057 64.8835 45.1083 65.022 46.0352C65.1711 46.962 65.4801 47.6758 65.9488 48.1765C66.4282 48.6772 67.0514 48.9276 67.8185 48.9276ZM82.6455 55L86.7364 30.4545H95.3017L94.5347 35.1207H94.7904C95.5254 33.3949 96.447 32.1325 97.5549 31.3335C98.6629 30.5344 99.872 30.1349 101.182 30.1349C101.566 30.1349 101.933 30.1669 102.285 30.2308C102.647 30.2841 103.004 30.3587 103.356 30.4545L102.077 37.9972C101.662 37.8374 101.145 37.7255 100.527 37.6616C99.9093 37.587 99.3607 37.5497 98.8813 37.5497C98.029 37.5497 97.23 37.7468 96.4843 38.141C95.7492 38.5245 95.1206 39.0678 94.5986 39.771C94.0872 40.4634 93.7463 41.2784 93.5759 42.2159L91.4665 55H82.6455ZM121.447 30.4545L120.36 36.8466H104.188L105.275 30.4545H121.447ZM109.366 24.5739H118.187L114.447 47.1058C114.394 47.4467 114.405 47.7344 114.479 47.9688C114.554 48.1925 114.703 48.3629 114.927 48.4801C115.161 48.5866 115.47 48.6399 115.854 48.6399C116.109 48.6399 116.424 48.608 116.796 48.544C117.169 48.4695 117.452 48.4162 117.643 48.3842L117.899 54.5845C117.452 54.7124 116.85 54.8562 116.093 55.016C115.348 55.1864 114.479 55.2983 113.489 55.3516C111.422 55.4474 109.739 55.229 108.439 54.6964C107.15 54.1637 106.255 53.3327 105.754 52.2035C105.264 51.0636 105.179 49.6413 105.498 47.9368L109.366 24.5739ZM145.362 38.4446H137.436C137.479 37.9332 137.388 37.4964 137.165 37.1342C136.941 36.772 136.627 36.495 136.222 36.3033C135.828 36.1115 135.38 36.0156 134.879 36.0156C134.006 36.0156 133.212 36.2127 132.498 36.6069C131.785 36.9904 131.385 37.4964 131.3 38.125C131.247 38.37 131.326 38.5991 131.54 38.8121C131.753 39.0252 132.312 39.2223 133.217 39.4034L138.075 40.2983C140.504 40.7457 142.273 41.5607 143.381 42.7433C144.499 43.9151 144.904 45.4652 144.595 47.3935C144.308 49.0661 143.573 50.5043 142.39 51.7081C141.207 52.9119 139.705 53.8388 137.884 54.4886C136.073 55.1278 134.07 55.4474 131.875 55.4474C128.008 55.4474 125.11 54.6751 123.182 53.1303C121.264 51.5856 120.391 49.5668 120.561 47.0739H129.127C129.148 47.8729 129.414 48.4748 129.926 48.8796C130.448 49.2738 131.14 49.4815 132.003 49.5028C132.94 49.5348 133.761 49.3484 134.464 48.9435C135.167 48.5281 135.561 48.0114 135.646 47.3935C135.678 47.0419 135.524 46.7756 135.183 46.5945C134.853 46.4134 134.219 46.2322 133.281 46.0511L129.063 45.2841C126.634 44.8473 124.865 43.9737 123.757 42.6634C122.649 41.3423 122.266 39.6591 122.607 37.6136C122.884 35.9837 123.544 34.6147 124.588 33.5067C125.643 32.3988 127.028 31.5625 128.743 30.9979C130.458 30.4226 132.44 30.1349 134.688 30.1349C138.363 30.1349 141.144 30.8754 143.029 32.3562C144.926 33.8263 145.703 35.8558 145.362 38.4446Z" fill="#C10808"/>
</svg>
