<?xml version="1.0" encoding="UTF-8" standalone="no"?>
<svg
   xmlns:dc="http://purl.org/dc/elements/1.1/"
   xmlns:cc="http://creativecommons.org/ns#"
   xmlns:rdf="http://www.w3.org/1999/02/22-rdf-syntax-ns#"
   xmlns:svg="http://www.w3.org/2000/svg"
   xmlns="http://www.w3.org/2000/svg"
   xmlns:sodipodi="http://sodipodi.sourceforge.net/DTD/sodipodi-0.dtd"
   xmlns:inkscape="http://www.inkscape.org/namespaces/inkscape"
   version="1.1"
   x="0px"
   y="0px"
   viewBox="0 0 100 100"
   enable-background="new 0 0 100 100"
   xml:space="preserve"
   id="svg3009"
   inkscape:version="0.48.4 r9939"
   width="100%"
   height="100%"
   sodipodi:docname="noun_20617_cc.svg"><metadata
     id="metadata3031"><rdf:RDF><cc:Work
         rdf:about=""><dc:format>image/svg+xml</dc:format><dc:type
           rdf:resource="http://purl.org/dc/dcmitype/StillImage" /><dc:title></dc:title></cc:Work></rdf:RDF></metadata><defs
     id="defs3029" /><sodipodi:namedview
     pagecolor="#ffffff"
     bordercolor="#666666"
     borderopacity="1"
     objecttolerance="10"
     gridtolerance="10"
     guidetolerance="10"
     inkscape:pageopacity="0"
     inkscape:pageshadow="2"
     inkscape:window-width="1600"
     inkscape:window-height="848"
     id="namedview3027"
     showgrid="false"
     inkscape:zoom="1.888"
     inkscape:cx="-13.294492"
     inkscape:cy="62.5"
     inkscape:window-x="-8"
     inkscape:window-y="-8"
     inkscape:window-maximized="1"
     inkscape:current-layer="svg3009" /><g
     id="g3011"><path
       d="m 55.854,39.188 c -2.2,0 -4.27,0.567 -6.067,1.563 l 4.091,4.091 c 0.629,-0.18 1.291,-0.276 1.977,-0.276 3.961,0 7.172,3.211 7.172,7.171 0,0.686 -0.096,1.35 -0.275,1.977 l 4.091,4.092 c 0.996,-1.799 1.563,-3.867 1.563,-6.068 -0.002,-6.929 -5.622,-12.55 -12.552,-12.55 z"
       id="path3013"
       inkscape:connector-curvature="0"
       style="fill:#cccccc" /><path
       d="M 55.24,64.273 43.319,52.353 c 0.311,6.441 5.48,11.61 11.921,11.92 z"
       id="path3015"
       inkscape:connector-curvature="0"
       style="fill:#cccccc" /><path
       d="m 55.854,66.688 c -8.255,0 -14.95,-6.694 -14.95,-14.95 0,-0.576 0.034,-1.145 0.097,-1.704 l -5.35,-5.35 V 64.51 c 0,0.223 -0.182,0.404 -0.405,0.404 -0.223,0 -0.405,-0.182 -0.405,-0.404 V 43.9 c 0,-0.008 0,-0.017 0,-0.026 l -8.097,-8.097 c -2.082,0.982 -3.631,2.693 -3.839,5.083 -0.669,7.659 -0.796,15.55 -0.204,23.75 0.152,2.109 1.298,2.737 4.494,2.771 l 5.646,0.061 c 0.793,0.008 1.013,-0.236 1.519,-0.354 l 23.688,-0.007 -0.489,-0.488 c -0.561,0.061 -1.129,0.095 -1.705,0.095 z"
       id="path3017"
       inkscape:connector-curvature="0"
       style="fill:#cccccc" /><path
       d="M 50,0 C 22.393,0 0,22.393 0,50 0,77.607 22.393,100 50,100 77.607,100 100,77.607 100,50 100,22.393 77.607,0 50,0 z m 0,89.486 C 28.198,89.486 10.513,71.802 10.513,50 c 0,-8.442 2.608,-16.764 8.097,-23.956 l 9.281,9.281 1.169,1.169 1.454,1.454 10.708,10.708 2.118,2.118 13.478,13.478 2.117,2.117 0.711,0.711 14.31,14.31 C 67.245,86.512 59.049,89.486 50,89.486 z M 81.391,73.956 67.953,60.52 66.23,58.797 52.72,45.287 48.795,41.362 47.072,39.64 41.357,33.925 26.044,18.61 C 32.755,13.488 40.952,10.513 50,10.513 c 21.803,0 39.487,17.685 39.487,39.487 0,8.442 -2.608,16.764 -8.096,23.956 z"
       id="path3019"
       inkscape:connector-curvature="0"
       style="fill:#cccccc" /><path
       d="m 76.477,38.61 c -0.365,-1.54 -0.776,-1.251 -2.079,-2.03 0.149,-0.635 0.275,-1.109 0.345,-1.476 0.151,-0.806 -0.018,-0.876 -0.713,-1.399 -1.535,-1.153 -4.236,-1.599 -6.385,-1.798 -0.66,-0.062 -1,0.137 -1.428,0.493 -0.211,-0.279 -0.403,-0.485 -0.705,-0.808 -0.484,-0.518 -0.86,-1.981 -1.205,-2.537 -0.557,-0.9 -1.702,-1.71 -2.646,-2.191 -0.287,-0.147 -0.434,-0.184 -0.789,-0.199 -0.016,-0.406 0.016,-0.891 -0.321,-0.904 -0.984,-0.065 -3.087,-0.034 -4.409,-0.04 -1.402,-0.007 -2.19,-0.018 -3.621,0.014 -0.6,0.013 -0.682,0.228 -0.736,0.846 -1.084,0.355 -2.706,1.039 -3.552,2.491 -0.559,0.96 -0.92,1.769 -1.467,2.641 -0.55,0.876 -1.895,1.5 -4.056,1.961 l 5.323,5.323 c 2.276,-1.401 4.955,-2.209 7.822,-2.209 8.256,0 14.951,6.695 14.951,14.95 0,2.868 -0.809,5.547 -2.209,7.822 l 6.484,6.485 c 1.508,-1.052 2.5,-2.805 2.531,-4.78 0.119,-7.551 0.155,-14.817 -0.541,-19.562 -0.12,-0.815 -0.315,-1.912 -0.594,-3.093 z M 71.395,55.006 70.802,54.98 c 0.418,-2.201 0.393,-4.378 0,-6.533 l 0.593,0.026 c 2.134,2.285 2.052,4.449 0,6.533 z"
       id="path3021"
       inkscape:connector-curvature="0"
       style="fill:#cccccc" /></g></svg>